<svg width="34" height="34" viewBox="0 0 34 34" fill="none" xmlns="http://www.w3.org/2000/svg">
<path d="M24.3474 20.015C23.9288 19.8031 21.8905 18.8085 21.5096 18.6665C21.1286 18.5308 20.852 18.4599 20.5744 18.8784C20.303 19.2865 19.5036 20.2206 19.2593 20.493C19.0151 20.7654 18.7751 20.7863 18.3628 20.6015C17.9443 20.3897 16.6073 19.9544 15.0198 18.5308C13.7799 17.4277 12.9544 16.0688 12.7091 15.6502C12.4649 15.2369 12.682 15.0031 12.8886 14.7965C13.0786 14.6065 13.3071 14.3185 13.519 14.068C13.7204 13.8175 13.7852 13.6495 13.9323 13.3781C14.068 13.0848 13.9981 12.8563 13.8947 12.6496C13.7914 12.443 12.9596 10.3942 12.612 9.57801C12.2801 8.7681 11.9326 8.87143 11.6769 8.87143C11.4379 8.84951 11.1603 8.84951 10.8837 8.84951C10.6071 8.84951 10.1552 8.95283 9.77422 9.34944C9.39327 9.76796 8.31722 10.7678 8.31722 12.7905C8.31722 14.8184 9.80658 16.7806 10.0132 17.0738C10.2251 17.3452 12.9429 21.52 17.1125 23.3141C18.1071 23.7326 18.8794 23.9831 19.4827 24.1898C20.4773 24.505 21.3854 24.4611 22.1024 24.3578C22.8956 24.2273 24.5592 23.3517 24.9078 22.3737C25.2616 21.3895 25.2616 20.5744 25.1583 20.3897C25.055 20.1997 24.7836 20.0964 24.3651 19.9117L24.3474 20.015ZM16.7858 30.2672H16.7639C14.2955 30.2672 11.8554 29.5982 9.72413 28.3479L9.2242 28.0494L4.00571 29.4083L5.40844 24.3307L5.07132 23.8088C3.69573 21.6181 2.96201 19.0903 2.96201 16.4925C2.96201 8.91526 9.16471 2.73449 16.7962 2.73449C20.493 2.73449 23.9612 4.17479 26.5704 6.78403C29.1797 9.37136 30.62 12.8396 30.62 16.5144C30.6095 24.0864 24.4121 30.2672 16.791 30.2672H16.7858ZM28.5545 4.79996C25.3796 1.73358 21.2048 0 16.7639 0C7.60438 0 0.146118 7.4259 0.140899 16.552C0.140899 19.466 0.901754 22.309 2.35876 24.8254L0 33.3983L8.81715 31.099C11.2469 32.4089 13.9814 33.1102 16.7649 33.1155H16.7701C25.9348 33.1155 33.3931 25.6896 33.3983 16.5572C33.3983 12.1382 31.6752 7.97906 28.5336 4.85319L28.5545 4.79996Z" fill="#293E8C"/>
</svg>
