<svg width="34" height="34" viewBox="0 0 34 34" fill="none" xmlns="http://www.w3.org/2000/svg">
<path d="M33.7967 16.6992C33.7967 7.47392 26.3166 0 17.0976 0C7.87235 0 0.398438 7.47392 0.398438 16.6992C0.398438 25.032 6.50302 31.9413 14.4883 33.1927V21.5273H10.2478V16.7002H14.4883V13.0191C14.4883 8.8349 16.9776 6.52415 20.7933 6.52415C22.6208 6.52415 24.5339 6.84978 24.5339 6.84978V10.9588H22.4246C20.3539 10.9588 19.7068 12.2478 19.7068 13.5681V16.6992H24.3377L23.5936 21.5263H19.7068V33.1917C27.6859 31.9403 33.7967 25.031 33.7967 16.6981V16.6992Z" fill="#293E8C"/>
</svg>
